<svg width="104" height="23" viewBox="0 0 104 23" fill="none" xmlns="http://www.w3.org/2000/svg">
<path d="M27.6236 3.39062H29.7489L23.6312 20.2015H21.6812L15.6001 3.39062H17.6888L21.5849 14.269C22.0163 15.4607 22.3726 16.6781 22.6509 17.9136C22.9359 16.6542 23.3019 15.413 23.7458 14.1994L27.6236 3.39062Z" fill="white"/>
<path d="M78.1415 20.2914H76.854L83.2019 3.48145H84.2467L90.5714 20.2914H89.307L85.0363 8.85101C84.3863 7.12603 83.9491 5.83039 83.7248 4.96504C83.5726 5.5394 83.2683 6.43337 82.8109 7.64409L78.1415 20.2914Z" fill="white"/>
<path d="M46.5737 11.7677C46.5737 9.06858 45.889 6.95243 44.5188 5.41827C43.7975 4.64165 42.9106 4.03294 41.9236 3.63605C40.9356 3.2382 39.8725 3.06169 38.8084 3.11894C36.3018 3.12084 34.3672 3.87552 33.0056 5.38201C31.6439 6.8885 30.9622 9.00942 30.9622 11.7467C30.9631 14.5068 31.643 16.644 33.0017 18.159C34.3605 19.6732 36.2893 20.4298 38.7882 20.4298C39.8551 20.487 40.923 20.3095 41.912 19.9098C42.9019 19.511 43.7908 18.8985 44.5139 18.118C45.8881 16.5772 46.5737 14.462 46.5737 11.7715V11.7677ZM43.0445 16.9569C42.5216 17.557 41.8639 18.0293 41.1243 18.3336C40.3857 18.6399 39.5845 18.7706 38.7853 18.7162C37.986 18.7668 37.1848 18.6332 36.4453 18.3279C35.7057 18.0217 35.047 17.5503 34.5222 16.9502C33.5439 15.7729 33.0547 14.0479 33.0547 11.7715C33.0556 9.52558 33.5448 7.81396 34.5242 6.63854C35.0538 6.03747 35.7163 5.5652 36.4597 5.25894C37.2031 4.95268 38.0082 4.82101 38.8122 4.87253C39.6076 4.81815 40.405 4.94886 41.1416 5.25321C41.8783 5.55852 42.5312 6.02888 43.0531 6.62709C44.0074 7.79393 44.4841 9.50936 44.4841 11.7715C44.4841 14.0565 44.0045 15.7843 43.0445 16.9569Z" fill="white"/>
<path d="M57.8193 11.3935H63.5884V19.5709C62.6929 19.8542 61.7761 20.0699 60.8478 20.2158C59.7799 20.3713 58.7004 20.4439 57.6209 20.4334C55.0527 20.4334 53.0526 19.6758 51.6207 18.1617C50.1888 16.6476 49.4724 14.5257 49.4724 11.797C49.4367 10.2028 49.8017 8.62376 50.5345 7.20409C51.2172 5.91227 52.2842 4.85992 53.5909 4.1892C55.0402 3.46792 56.6464 3.11109 58.2681 3.14925C60.0052 3.13494 61.727 3.47078 63.3284 4.13768L62.5629 5.8617C61.1704 5.24823 59.6663 4.91907 58.1419 4.89617C57.2512 4.84561 56.3595 4.98299 55.5246 5.29784C54.6906 5.61269 53.9328 6.09927 53.3021 6.72514C52.0752 8.12573 51.4503 9.94612 51.561 11.7961C51.561 14.0649 52.1195 15.786 53.2356 16.9586C54.3526 18.1312 55.9945 18.717 58.1612 18.717C59.3225 18.7189 60.479 18.5844 61.6076 18.3153V13.1413H57.8174V11.3935H57.8193Z" fill="white"/>
<path d="M72.1518 20.2015H70.9568V4.4964H65.4438V3.39062H77.6648V4.4964H72.1518V20.2015Z" fill="white"/>
<path d="M92.53 20.2015V3.39062H93.7145V19.0976H101.803V20.2015H92.53Z" fill="white"/>
<path d="M14.1825 20.2408H16.3001L10.2026 3.48242H8.25839L2.19653 20.2408H4.27846L8.16594 9.39676C8.59735 8.20893 8.95268 6.99534 9.23194 5.76363C9.51505 7.0192 9.87809 8.25568 10.3191 9.46546L14.1825 20.2408Z" fill="white"/>
</svg>
