<svg width="145" height="32" viewBox="0 0 145 32" fill="none" xmlns="http://www.w3.org/2000/svg">
<path d="M38.3998 4.71759H41.3542L32.8499 28.1066H30.1392L21.6858 4.71759H24.5893L30.0053 19.8528C30.605 21.5107 31.1003 23.2045 31.4872 24.9235C31.8834 23.1713 32.3921 21.4443 33.0092 19.7559L38.3998 4.71759Z" fill="#0A21A8"/>
<path d="M108.625 28.2314H106.836L115.66 4.84369H117.112L125.904 28.2314H124.147L118.21 12.3144C117.306 9.91441 116.699 8.11179 116.387 6.90782C116.175 7.70692 115.752 8.95071 115.116 10.6352L108.625 28.2314Z" fill="#0A21A8"/>
<path d="M64.7426 16.3723C64.7426 12.6171 63.7908 9.67286 61.8859 7.53838C60.8833 6.45786 59.6504 5.61097 58.2783 5.05877C56.9049 4.50523 55.4271 4.25966 53.9479 4.33931C50.4634 4.34196 47.7741 5.39195 45.8813 7.48794C43.9885 9.58392 43.0408 12.5348 43.0408 16.3431C43.0421 20.1833 43.9872 23.1567 45.876 25.2647C47.7648 27.3713 50.446 28.4239 53.9198 28.4239C55.403 28.5036 56.8875 28.2567 58.2623 27.7005C59.6384 27.1456 60.8739 26.2934 61.8792 25.2076C63.7895 23.0638 64.7426 20.1209 64.7426 16.3776V16.3723ZM59.8365 23.5921C59.1096 24.4271 58.1953 25.0842 57.1673 25.5076C56.1406 25.9337 55.0268 26.1156 53.9158 26.0399C52.8047 26.1102 51.691 25.9244 50.6629 25.4996C49.6348 25.0735 48.7192 24.4178 47.9897 23.5828C46.6296 21.9448 45.9496 19.5448 45.9496 16.3776C45.9509 13.2529 46.631 10.8715 47.9923 9.23614C48.7286 8.39987 49.6496 7.7428 50.683 7.3167C51.7164 6.8906 52.8355 6.70742 53.9532 6.7791C55.0589 6.70343 56.1673 6.88529 57.1914 7.30873C58.2154 7.73351 59.123 8.38792 59.8485 9.22021C61.1751 10.8436 61.8377 13.2303 61.8377 16.3776C61.8377 19.5568 61.1711 21.9607 59.8365 23.5921Z" fill="#0A21A8"/>
<path d="M80.3751 15.852H88.3948V27.2293C87.1498 27.6235 85.8755 27.9235 84.585 28.1266C83.1005 28.343 81.5999 28.4438 80.0993 28.4292C76.5292 28.4292 73.7489 27.3753 71.7583 25.2687C69.7678 23.1621 68.7719 20.2099 68.7719 16.4135C68.7223 14.1954 69.2297 11.9985 70.2484 10.0233C71.1975 8.22598 72.6806 6.76184 74.4972 5.82866C76.5118 4.82514 78.7446 4.32869 80.9989 4.38178C83.4137 4.36187 85.8072 4.82912 88.0333 5.75698L86.9691 8.15562C85.0335 7.3021 82.9425 6.84414 80.8235 6.81228C79.5853 6.74193 78.3457 6.93307 77.1851 7.37112C76.0259 7.80917 74.9724 8.48615 74.0956 9.35693C72.3902 11.3056 71.5214 13.8383 71.6753 16.4121C71.6753 19.5687 72.4517 21.9634 74.0032 23.5948C75.556 25.2262 77.8384 26.0412 80.8503 26.0412C82.4646 26.0439 84.0723 25.8567 85.6412 25.4824V18.2838H80.3724V15.852H80.3751Z" fill="#0A21A8"/>
<path d="M100.299 28.1066H98.638V6.25606H90.9744V4.71759H107.963V6.25606H100.299V28.1066Z" fill="#0A21A8"/>
<path d="M128.627 28.1066V4.71759H130.274V26.5708H141.518V28.1066H128.627Z" fill="#0A21A8"/>
<path d="M19.7153 28.1611H22.659L14.1828 4.84503H11.4801L3.05347 28.1611H5.94757L11.3516 13.0737C11.9513 11.421 12.4453 9.73257 12.8335 8.01888C13.227 9.76576 13.7317 11.4861 14.3448 13.1693L19.7153 28.1611Z" fill="#0A21A8"/>
</svg>
